# xmcd CD database file
# Copyright (C) 1997 Ti Kan
# 
# Track frame offsets:
#     150
#     21455
#     33168
#     43433
#     60320
#     74625
#     81255
#     94788
#     105940
#     119985
#     136523
#     160748
# 
# Disc length: 2310 seconds
# 
# Revision: 1
# Processed by: cddbd v1.4b41PL1 Copyright (c) Steve Scherf et al.
# Submitted via: DiscPlay 4.0.4
# 
DISCID=a109040c
DTITLE=John Denver - John Denver Back Home Again
DYEAR=1900
DGENRE=
TTITLE0=Back Home Again
TTITLE1=On The Road
TTITLE2=Grandma's Feather Bed
TTITLE3=Matthew
TTITLE4=Thank God I'm  a Country Boy
TTITLE5=The Music is You
TTITLE6=Annies Song
TTITLE7=It's Up To You
TTITLE8=Cool an Green an Shady
TTITLE9=Eclipse
TTITLE10=Sweet Surrender
TTITLE11=This Old Guitar
EXTD=
EXTT0=
EXTT1=
EXTT2=
EXTT3=
EXTT4=
EXTT5=
EXTT6=
EXTT7=
EXTT8=
EXTT9=
EXTT10=
EXTT11=
PLAYORDER=
